<svg width="178" height="19" viewBox="0 0 178 19" fill="none" xmlns="http://www.w3.org/2000/svg">
<path d="M16.096 18.72L3.736 7.56L3.808 18H0.28V-0.360001H0.424L12.76 10.968L12.688 0.335999H16.192V18.72H16.096ZM22.1809 0.335999H34.2289V3.696H25.6609V7.464H33.2449V10.824H25.6609V14.64H34.5649V18H22.1809V0.335999ZM37.9253 18L43.7093 8.88L38.1653 0.335999H42.6053L46.4213 6.192L49.7333 0.335999H53.9573L48.3413 9.12L54.1253 18H49.6373L45.6773 11.904L42.2453 18H37.9253ZM57.2359 0.335999H69.1399V3.696H64.8439V18H61.3639V3.696H57.2359V0.335999ZM83.1831 0.335999H86.6631V18H83.1831V0.335999ZM108.478 18.72L96.1182 7.56L96.1902 18H92.6622V-0.360001H92.8062L105.142 10.968L105.07 0.335999H108.574V18.72H108.478ZM117.227 0.335999L121.259 10.296L125.051 0.335999H129.179L121.115 18.816L113.051 0.335999H117.227ZM133.675 0.335999H145.723V3.696H137.155V7.464H144.739V10.824H137.155V14.64H146.059V18H133.675V0.335999ZM160.531 4.608C159.859 4.24 159.171 3.936 158.467 3.696C157.779 3.456 157.131 3.336 156.523 3.336C155.771 3.336 155.179 3.488 154.747 3.792C154.315 4.096 154.099 4.552 154.099 5.16C154.099 5.576 154.259 5.952 154.579 6.288C154.915 6.608 155.339 6.896 155.851 7.152C156.379 7.408 156.923 7.64 157.483 7.848C158.171 8.104 158.835 8.432 159.475 8.832C160.115 9.216 160.643 9.752 161.059 10.44C161.475 11.112 161.683 12.008 161.683 13.128C161.683 14.024 161.451 14.856 160.987 15.624C160.523 16.392 159.843 17.016 158.947 17.496C158.051 17.96 156.947 18.192 155.635 18.192C154.627 18.192 153.595 18.04 152.539 17.736C151.499 17.432 150.515 16.952 149.587 16.296L151.123 13.584C151.731 14.032 152.427 14.4 153.211 14.688C153.995 14.976 154.699 15.12 155.323 15.12C155.739 15.12 156.155 15.064 156.571 14.952C157.003 14.824 157.355 14.616 157.627 14.328C157.915 14.04 158.059 13.64 158.059 13.128C158.059 12.6 157.803 12.144 157.291 11.76C156.795 11.36 156.195 11.024 155.491 10.752C154.947 10.544 154.387 10.304 153.811 10.032C153.235 9.76 152.691 9.432 152.179 9.048C151.683 8.648 151.275 8.16 150.955 7.584C150.651 6.992 150.499 6.272 150.499 5.424C150.499 4.4 150.723 3.512 151.171 2.76C151.635 2.008 152.283 1.416 153.115 0.983999C153.947 0.535999 154.907 0.287999 155.995 0.24C157.419 0.24 158.571 0.408 159.451 0.743999C160.347 1.08 161.147 1.48 161.851 1.944L160.531 4.608ZM165.332 0.335999H177.236V3.696H172.94V18H169.46V3.696H165.332V0.335999Z" fill="#333333"/>
</svg>
